<svg width="15" height="22" viewBox="0 0 15 22" fill="none" xmlns="http://www.w3.org/2000/svg">
<path d="M12.1393 6.66507C12.3302 6.64385 12.5 6.81361 12.5 7.02581L12.5 15.8958C12.5 16.108 12.3515 16.2566 12.1393 16.2566L3.26923 16.2566C3.05703 16.2566 2.88727 16.0868 2.90849 15.8958L2.88727 15.0683C2.88727 14.856 3.05703 14.6863 3.24801 14.7075L9.84748 14.6863L2.61141 7.45021C2.46286 7.30167 2.46286 7.08947 2.61141 6.94093L3.20557 6.34676C3.33289 6.21944 3.56631 6.19822 3.71485 6.34676L10.9509 13.5828L10.9509 7.00459C10.9297 6.81361 11.0995 6.64385 11.3117 6.64385L12.1393 6.66507Z" fill="white"/>
</svg>
