<svg width="38" height="39" viewBox="0 0 38 39" fill="none" xmlns="http://www.w3.org/2000/svg">
<ellipse cx="18.9996" cy="19.0821" rx="18.9996" ry="18.9996" fill="#FF9B99"/>
<path d="M13.5101 17.8255C13.8141 17.6887 14.1125 17.5364 14.3848 17.3441C15.2743 16.7153 15.8377 15.6483 15.8552 14.5592C15.8576 14.4088 15.8493 14.2542 15.7875 14.1171C15.6365 13.782 15.1954 13.6561 14.8421 13.7585C14.4889 13.861 14.2126 14.1349 13.984 14.423C13.7557 14.7112 13.5548 15.0264 13.2749 15.265C13.0313 15.4725 12.7382 15.6133 12.4418 15.7342C11.5639 16.0921 10.5131 16.2824 9.70221 15.7907C9.53666 15.6906 9.38764 15.565 9.23795 15.4424C8.8596 15.1328 8.45548 14.8298 7.98098 14.7125C7.5068 14.5952 6.94341 14.7082 6.65659 15.1037C6.41868 15.4322 6.41901 15.8908 6.57531 16.2652C6.7316 16.6393 7.02239 16.9416 7.33432 17.2007C8.35833 18.0522 9.69626 18.5323 11.0266 18.4728C11.8864 18.4345 12.7254 18.1788 13.5101 17.8255Z" fill="#21214D"/>
<path d="M24.5105 17.8255C24.2065 17.6887 23.9081 17.5364 23.6358 17.3441C22.7463 16.7153 22.1829 15.6483 22.1654 14.5592C22.1631 14.4088 22.1713 14.2542 22.2331 14.1171C22.3841 13.782 22.8253 13.6561 23.1785 13.7585C23.5317 13.861 23.808 14.1349 24.0366 14.423C24.265 14.7112 24.4662 15.0264 24.7457 15.265C24.9893 15.4725 25.2824 15.6133 25.5788 15.7342C26.4567 16.0921 27.5075 16.2824 28.3184 15.7907C28.4839 15.6906 28.633 15.565 28.7827 15.4424C29.161 15.1328 29.5651 14.8298 30.0396 14.7125C30.5138 14.5952 31.0772 14.7082 31.364 15.1037C31.6019 15.4322 31.6016 15.8908 31.4453 16.2652C31.289 16.6393 30.9982 16.9416 30.6863 17.2007C29.6623 18.0522 28.3243 18.5323 26.994 18.4728C26.1342 18.4345 25.2953 18.1788 24.5105 17.8255Z" fill="#21214D"/>
<path opacity="0.3" d="M10.9622 8.64974C12.2212 7.75062 13.227 7.19219 13.9613 7.6548C14.6952 8.11741 14.709 9.70283 13.6285 10.2785C12.5477 10.8541 9.46769 12.6698 5.16841 11.5374C4.50919 11.4099 5.38385 9.85285 7.18406 9.88457C8.9846 9.91663 10.5135 8.962 10.9622 8.64974Z" fill="#21214D"/>
<path opacity="0.3" d="M27.0583 8.64974C25.7994 7.75062 24.7935 7.19219 24.0596 7.6548C23.3254 8.11741 23.3115 9.70283 24.392 10.2785C25.4729 10.8541 28.5529 12.6698 32.8522 11.5374C33.5114 11.4099 32.6367 9.85285 30.8365 9.88457C29.036 9.91663 27.5071 8.962 27.0583 8.64974Z" fill="#21214D"/>
<path d="M27.5929 29.6875C26.9872 30.7237 24.7403 30.8268 24.0675 29.8894C22.6275 28.1086 20.21 28.4404 19.0079 28.4404C17.8104 28.4404 15.3926 28.1086 13.9529 29.8894C13.2801 30.8268 11.0332 30.7237 10.4275 29.6875C10.0194 28.9787 9.14476 27.8711 10.6116 25.6641L10.6205 25.6506C10.8581 25.3591 11.1049 25.0812 11.3607 24.8165C13.4642 22.6231 16.1196 21.3133 19.0079 21.3133C21.8966 21.3133 24.5562 22.6231 26.6601 24.8165C26.9155 25.0812 27.1624 25.3591 27.4 25.6506L27.4089 25.6641C28.8757 27.8711 28.001 28.9787 27.5929 29.6875Z" fill="#21214D"/>
<path d="M11.8092 26.5252C12.3296 27.3463 13.9398 26.8976 14.6126 26.5252C16.3302 25.4757 18.2365 25.597 19.0483 25.597C19.8602 25.597 21.6905 25.4757 23.4081 26.5252C24.0809 26.8976 25.6914 27.3463 26.2115 26.5252C26.3506 26.3048 26.492 26.0332 26.5813 25.7206C26.65 25.4807 26.7894 24.949 26.5988 24.753C26.3612 24.5085 26.117 24.2752 25.8659 24.0539C25.6147 23.8321 25.3573 23.6226 25.0936 23.4254C23.2971 22.0812 21.2196 21.3132 19.008 21.3132C16.7968 21.3132 14.722 22.0808 12.9267 23.4254C12.6633 23.6223 12.4056 23.8321 12.1548 24.0535C11.9037 24.2752 11.6595 24.5085 11.4216 24.753C11.2312 24.949 11.3707 25.4807 11.4391 25.7206C11.5286 26.0332 11.6701 26.3048 11.8092 26.5252Z" fill="white"/>
<path d="M11.8092 26.5252C12.3296 27.3463 13.9398 26.8976 14.6126 26.5252C16.3302 25.4757 18.2365 25.597 19.0483 25.597C19.8602 25.597 21.6905 25.4757 23.4081 26.5252C24.0809 26.8976 25.6914 27.3463 26.2115 26.5252C26.3506 26.3048 26.492 26.0332 26.5813 25.7206C26.65 25.4807 26.7894 24.949 26.5988 24.753C26.3612 24.5085 26.117 24.2752 25.8659 24.0539C25.6147 23.8321 25.3573 23.6226 25.0936 23.4254C23.2971 22.0812 21.2196 21.3132 19.008 21.3132C16.7968 21.3132 14.722 22.0808 12.9267 23.4254C12.6633 23.6223 12.4056 23.8321 12.1548 24.0535C11.9037 24.2752 11.6595 24.5085 11.4216 24.753C11.2312 24.949 11.3707 25.4807 11.4391 25.7206C11.5286 26.0332 11.6701 26.3048 11.8092 26.5252Z" fill="white"/>
<path d="M11.8091 26.5248C12.3071 27.3126 13.8112 26.9312 14.5255 26.57C14.5153 26.4822 14.5032 26.3922 14.4929 26.2983C13.7643 26.6596 12.2296 27.0883 11.705 26.3515C11.7397 26.4128 11.7744 26.4697 11.8091 26.5248Z" fill="white"/>
<path d="M11.705 26.3515C12.2296 27.0883 13.7643 26.6596 14.4929 26.2983C14.4807 26.2044 14.4705 26.1084 14.4603 26.0084C13.7072 26.3716 12.1827 26.784 11.6051 26.1574C11.6378 26.2248 11.6703 26.2883 11.705 26.3515Z" fill="white"/>
<path d="M11.6051 26.1574C12.1827 26.784 13.7072 26.3716 14.4603 26.0084C14.45 25.9083 14.4418 25.8064 14.4339 25.7003C13.6542 26.0656 12.1459 26.4617 11.5153 25.9475C11.5417 26.0209 11.5724 26.0901 11.6051 26.1574Z" fill="white"/>
<path d="M11.5153 25.9475C12.1459 26.4617 13.6542 26.0656 14.4339 25.7003C14.4256 25.5942 14.4197 25.4862 14.4154 25.376C13.6235 25.7413 12.0948 26.1839 11.4376 25.7206C11.4601 25.7982 11.4867 25.874 11.5153 25.9475Z" fill="white"/>
<path d="M14.5255 26.57C14.5562 26.5558 14.585 26.5409 14.6115 26.5247C14.6052 26.435 14.5993 26.3412 14.591 26.2453C14.5626 26.2618 14.5235 26.282 14.4929 26.2983C14.5032 26.3922 14.5153 26.4822 14.5255 26.57Z" fill="white"/>
<path d="M14.4929 26.2983C14.5237 26.2821 14.5622 26.2616 14.5908 26.2452C14.5848 26.1493 14.5786 26.0514 14.5746 25.9493C14.5359 25.9678 14.499 25.9879 14.4603 26.0084C14.4705 26.1084 14.4807 26.2044 14.4929 26.2983Z" fill="white"/>
<path d="M14.4603 26.0084C14.499 25.9879 14.5359 25.9678 14.5746 25.9493C14.5684 25.8473 14.5644 25.7414 14.5624 25.6332C14.5175 25.6557 14.4787 25.6758 14.4339 25.7003C14.4421 25.8064 14.45 25.9083 14.4603 26.0084Z" fill="white"/>
<path d="M14.4339 25.7003C14.4787 25.6758 14.5175 25.6557 14.5624 25.6332C14.5584 25.5271 14.5586 25.4146 14.5586 25.3024C14.5096 25.3269 14.4623 25.3515 14.4154 25.376C14.4194 25.4862 14.4256 25.5942 14.4339 25.7003Z" fill="white"/>
<path d="M14.6115 26.5247C16.3279 25.4778 18.2299 25.5963 19.0441 25.5963C19.0441 25.5167 19.0441 25.4329 19.0441 25.3472C18.1992 25.3472 16.2952 25.233 14.591 26.2453C14.5993 26.3412 14.6052 26.435 14.6115 26.5247Z" fill="white"/>
<path d="M14.591 26.2453C16.2952 25.233 18.1992 25.3472 19.0441 25.3472C19.0441 25.2615 19.0407 25.1738 19.0407 25.082C18.1304 25.082 16.2529 25.0105 14.5732 25.9493C14.5772 26.0514 14.5834 26.1494 14.5893 26.2453L14.591 26.2453Z" fill="white"/>
<path d="M14.5743 25.9495C16.254 25.0106 18.1316 25.0821 19.0418 25.0821C19.0418 24.9902 19.0418 24.8941 19.0418 24.7962C18.0642 24.7962 16.2152 24.772 14.5621 25.6332C14.5654 25.7414 14.568 25.8474 14.5743 25.9495Z" fill="white"/>
<path d="M14.5624 25.6332C16.2155 24.772 18.0645 24.7961 19.0421 24.7961C19.0421 24.6981 19.0421 24.5983 19.0388 24.4963C18.0327 24.4963 16.1999 24.4757 14.557 25.3024C14.557 25.4146 14.557 25.527 14.561 25.6331L14.5624 25.6332Z" fill="white"/>
<path d="M19.0441 25.5963C19.0475 25.5963 19.0474 25.5963 19.0481 25.5963C19.0481 25.5167 19.0481 25.4329 19.0481 25.3472C19.0448 25.3472 19.0441 25.3472 19.0441 25.3472C19.0441 25.4329 19.0441 25.5167 19.0441 25.5963Z" fill="white"/>
<path d="M19.0441 25.3472C19.0441 25.3472 19.0474 25.3472 19.0481 25.3472C19.0481 25.2615 19.0481 25.1737 19.0481 25.0819C19.0448 25.0819 19.0441 25.0821 19.0418 25.0821C19.0418 25.1739 19.0452 25.2615 19.0452 25.3472L19.0441 25.3472Z" fill="white"/>
<path d="M19.0418 25.0821C19.0451 25.0821 19.0458 25.0819 19.0481 25.0819C19.0481 24.9901 19.0481 24.8941 19.0481 24.7961C19.0448 24.7961 19.0441 24.7962 19.0418 24.7962C19.0418 24.8941 19.0418 24.9902 19.0418 25.0821Z" fill="white"/>
<path d="M19.0421 24.7961C19.0454 24.7961 19.046 24.796 19.0483 24.796C19.0483 24.698 19.0483 24.5983 19.0483 24.4962C19.045 24.4962 19.0444 24.4962 19.0401 24.4962C19.0434 24.5983 19.0433 24.698 19.0433 24.796L19.0421 24.7961Z" fill="white"/>
<path d="M19.0481 25.5963C19.8604 25.5963 21.689 25.4758 23.4075 26.5248C23.426 26.4411 23.4441 26.3556 23.4625 26.2637C21.7522 25.2392 19.8951 25.3472 19.0481 25.3472C19.0481 25.4329 19.0481 25.5167 19.0481 25.5963Z" fill="white"/>
<path d="M19.0481 25.3472C19.8951 25.3472 21.7522 25.2392 23.4625 26.2637C23.481 26.174 23.4993 26.082 23.5156 25.9861C21.8196 25.0105 19.9706 25.0819 19.0481 25.0819C19.0481 25.1737 19.0481 25.2615 19.0481 25.3472Z" fill="white"/>
<path d="M19.0481 25.0819C19.9706 25.0819 21.8196 25.0105 23.5156 25.9861C23.5341 25.8902 23.5503 25.7903 23.5646 25.6903C21.8829 24.7657 20.0461 24.7981 19.0481 24.7961C19.0481 24.8941 19.0481 24.9901 19.0481 25.0819Z" fill="white"/>
<path d="M19.0481 24.7961C20.0461 24.7994 21.8829 24.7656 23.5646 25.6903C23.5788 25.5882 23.593 25.4841 23.6034 25.3759C21.9298 24.4759 20.081 24.4983 19.0483 24.4962C19.0483 24.5983 19.0481 24.6981 19.0481 24.7961Z" fill="white"/>
<path d="M23.4075 26.5248C24.081 26.8983 25.6913 27.3452 26.2117 26.5247C26.2464 26.4697 26.2812 26.4127 26.3139 26.3515C25.773 27.1148 24.1544 26.6352 23.4625 26.2637C23.4441 26.3556 23.426 26.4411 23.4075 26.5248Z" fill="white"/>
<path d="M23.4625 26.2637C24.1544 26.6352 25.773 27.1148 26.3139 26.3515C26.3486 26.2882 26.3831 26.2248 26.4137 26.1574C25.8259 26.8003 24.2483 26.3555 23.5156 25.9861C23.4993 26.082 23.481 26.174 23.4625 26.2637Z" fill="white"/>
<path d="M23.5157 25.9863C24.2484 26.3557 25.8259 26.8003 26.4137 26.1574C26.4464 26.0901 26.4771 26.021 26.5056 25.9475C25.8709 26.4659 24.3381 26.0556 23.5646 25.6903C23.5504 25.7903 23.534 25.8904 23.5157 25.9863Z" fill="white"/>
<path d="M23.5646 25.6903C24.3381 26.0556 25.8709 26.4659 26.5056 25.9475C26.5321 25.874 26.5588 25.7981 26.5813 25.7206C25.9241 26.1839 24.3952 25.7433 23.6034 25.3759C23.593 25.4841 23.5788 25.5882 23.5646 25.6903Z" fill="white"/>
<path d="M11.4379 25.7206C12.0787 26.1716 13.5503 25.7637 14.3565 25.4024C14.3257 25.0453 14.2543 24.3941 14.3808 24.0778C13.5134 24.437 12.1706 24.9066 11.4216 24.7535C11.2318 24.9494 11.3707 25.4798 11.4379 25.7206Z" fill="white"/>
<path d="M14.3562 25.4024C14.3767 25.3941 14.397 25.3862 14.4154 25.376C14.3929 25.0147 14.3276 24.3597 14.4603 24.0412C14.4338 24.0535 14.4071 24.0654 14.3806 24.0777C14.254 24.3941 14.3255 25.0452 14.3562 25.4024Z" fill="white"/>
<path d="M14.4154 25.376C16.091 24.4759 17.9972 24.4962 19.036 24.4962C19.0327 24.1574 19.0328 23.5268 19.0321 23.2329C17.8219 23.2329 16.0727 23.296 14.4604 24.0409C14.3278 24.3593 14.3929 25.0147 14.4154 25.376Z" fill="white"/>
<path d="M19.036 24.4962C19.0393 24.4962 19.0395 24.4962 19.0401 24.4962C19.0434 24.1574 19.0463 23.5268 19.0463 23.2329C19.0424 23.2329 19.0361 23.2329 19.0321 23.2329C19.0354 23.5268 19.0354 24.1574 19.036 24.4962Z" fill="white"/>
<path d="M19.0401 24.4962C19.0441 24.4962 19.0464 24.4962 19.0483 24.4962C19.0516 24.1574 19.0514 23.5268 19.0481 23.2329C19.0481 23.2329 19.048 23.2329 19.0447 23.2329C19.0447 23.5268 19.0407 24.1574 19.0384 24.4962H19.0401Z" fill="white"/>
<path d="M19.0483 24.4962C20.081 24.4995 21.9298 24.4758 23.6034 25.3759C23.6523 25.0269 23.7442 24.3861 23.638 24.08C22.0114 23.3024 20.2706 23.235 19.0481 23.2329C19.0514 23.5268 19.0516 24.1574 19.0483 24.4962Z" fill="white"/>
<path d="M23.6034 25.3759C24.3952 25.7433 25.9241 26.1839 26.5813 25.7206C26.6486 25.4797 26.7894 24.9493 26.5974 24.7534C25.8505 24.9065 24.5054 24.4371 23.638 24.08C23.7442 24.3861 23.6523 25.0269 23.6034 25.3759Z" fill="white"/>
<path d="M11.4212 24.7535C12.1702 24.9066 13.5132 24.4369 14.3806 24.0777C14.5112 23.7226 14.6437 23.3757 14.7825 23.041C13.9131 23.3982 13.0661 23.8165 12.1538 24.0533C11.9028 24.2757 11.6579 24.5086 11.4212 24.7535Z" fill="white"/>
<path d="M14.3808 24.0778C14.6727 23.939 14.9707 23.8228 15.2687 23.7248C15.3442 23.3942 15.4258 23.0739 15.5075 22.7677C15.2626 22.8494 15.0217 22.9431 14.7829 23.0411C14.6441 23.3758 14.5114 23.7227 14.3808 24.0778Z" fill="white"/>
<path d="M15.2687 23.7248C16.6361 23.2779 18.0219 23.2329 19.0321 23.2329C19.0321 22.89 19.0287 22.5572 19.0287 22.2368C17.8389 22.2335 16.6368 22.3819 15.5061 22.7676C15.4245 23.0738 15.3428 23.3941 15.2673 23.7247L15.2687 23.7248Z" fill="white"/>
<path d="M19.0317 23.2329C19.0357 23.2329 19.042 23.2329 19.0459 23.2329C19.0426 22.89 19.0397 22.5572 19.0377 22.2368C19.0344 22.2368 19.0314 22.2368 19.0295 22.2368C19.0295 22.5572 19.0327 22.89 19.0327 23.2329H19.0317Z" fill="white"/>
<path d="M19.0463 23.2329C19.0496 23.2329 19.0495 23.2329 19.0495 23.2329C19.0495 22.89 19.0461 22.5572 19.0454 22.2368C19.0421 22.2368 19.0415 22.2368 19.0391 22.2368C19.0425 22.5572 19.0456 22.89 19.0475 23.2329H19.0463Z" fill="white"/>
<path d="M19.0481 23.2329C20.042 23.2362 21.3811 23.2776 22.7219 23.7144C22.6464 23.3837 22.5709 23.0656 22.4893 22.7595C21.3831 22.384 20.2076 22.2409 19.0442 22.2368C19.0475 22.5572 19.0481 22.89 19.0481 23.2329Z" fill="white"/>
<path d="M22.7219 23.7144C23.0281 23.8144 23.3339 23.9351 23.638 24.08C23.5095 23.7228 23.375 23.3758 23.2383 23.0432C22.9914 22.9411 22.7424 22.8452 22.4893 22.7595C22.5709 23.0656 22.6464 23.3837 22.7219 23.7144Z" fill="white"/>
<path d="M23.638 24.08C24.5054 24.4371 25.8505 24.9065 26.5974 24.7534C26.3607 24.5085 26.1159 24.2756 25.8649 24.0532C24.9526 23.8185 24.1057 23.3983 23.2383 23.0432C23.375 23.3758 23.5095 23.7228 23.638 24.08Z" fill="white"/>
<path d="M12.1542 24.0533C13.3196 23.7512 14.3748 23.1535 15.5075 22.7677C15.5339 22.6881 15.5605 22.6103 15.587 22.5328C14.4706 22.9144 13.4685 23.5288 12.344 23.89C12.2807 23.9431 12.2175 23.9981 12.1542 24.0533Z" fill="white"/>
<path d="M12.344 23.89C13.4685 23.5288 14.4706 22.9144 15.587 22.5328C15.6134 22.4552 15.64 22.3798 15.6666 22.3043C14.5869 22.6757 13.5685 23.2411 12.5358 23.7309C12.4705 23.7819 12.4072 23.8349 12.344 23.89Z" fill="white"/>
<path d="M12.5358 23.7309C13.5685 23.2411 14.5869 22.6757 15.6666 22.3043C15.693 22.2267 15.7194 22.1532 15.748 22.0797C14.7031 22.443 13.6725 22.9573 12.7296 23.5757C12.6643 23.6267 12.5991 23.6778 12.5358 23.7309Z" fill="white"/>
<path d="M12.7296 23.5757C13.6725 22.9573 14.7031 22.443 15.748 22.0797C15.7745 22.0042 15.801 21.9306 15.8296 21.8592C14.803 22.2184 13.8295 22.749 12.9254 23.4246C12.8601 23.4736 12.7949 23.5247 12.7296 23.5757Z" fill="white"/>
<path d="M15.5071 22.7677C16.6398 22.382 17.8458 22.2347 19.0377 22.2368C19.0344 22.1572 19.0315 22.0779 19.0295 22.0004C17.8519 21.9971 16.6988 22.1512 15.5864 22.5328C15.56 22.6104 15.5336 22.6881 15.5071 22.7677Z" fill="white"/>
<path d="M15.587 22.5328C16.6993 22.1511 17.8523 21.9982 19.0299 22.0002C19.0266 21.9207 19.0259 21.8429 19.0216 21.7653C17.8767 21.7653 16.7401 21.9328 15.6666 22.3043C15.64 22.3798 15.6134 22.4552 15.587 22.5328Z" fill="white"/>
<path d="M15.6666 22.3043C16.7401 21.9328 17.8767 21.7653 19.0216 21.7653C19.0183 21.6898 19.0179 21.6124 19.0156 21.5368C17.9013 21.5368 16.7787 21.7185 15.748 22.0797C15.7194 22.1532 15.693 22.2267 15.6666 22.3043Z" fill="white"/>
<path d="M15.748 22.0797C16.7787 21.7185 17.9013 21.5368 19.0156 21.5368C19.0123 21.4613 19.0093 21.3878 19.0073 21.3123C17.9072 21.3123 16.8439 21.502 15.8296 21.8592C15.801 21.9306 15.7745 22.0042 15.748 22.0797Z" fill="white"/>
<path d="M19.0379 22.2368C19.0379 22.1572 19.0379 22.0779 19.0379 22.0003C19.0346 22.0003 19.0319 22.0002 19.0299 22.0002C19.0332 22.0778 19.036 22.1572 19.0379 22.2368Z" fill="white"/>
<path d="M19.0299 22.0002C19.0332 22.0002 19.036 22.0003 19.0379 22.0003C19.0346 21.9207 19.0347 21.8429 19.0347 21.7653C19.0307 21.7653 19.0265 21.7653 19.0205 21.7653C19.0245 21.8429 19.0268 21.9207 19.0287 22.0002H19.0299Z" fill="white"/>
<path d="M19.0216 21.7653C19.0279 21.7653 19.0317 21.7653 19.0357 21.7653C19.0357 21.6898 19.0357 21.6124 19.0357 21.5368C19.0274 21.5368 19.0234 21.5368 19.0152 21.5368C19.0185 21.6124 19.0193 21.6898 19.0216 21.7653Z" fill="white"/>
<path d="M19.0156 21.5368C19.0239 21.5368 19.0274 21.5368 19.0357 21.5368C19.0357 21.4613 19.0358 21.3878 19.0358 21.3123C19.0256 21.3123 19.0172 21.3123 19.0073 21.3123C19.0106 21.3878 19.0136 21.4613 19.0156 21.5368Z" fill="white"/>
<path d="M19.0379 22.2368C20.2053 22.2408 21.3811 22.384 22.4893 22.7595C22.4648 22.6799 22.438 22.6022 22.4115 22.5247C21.3196 22.1553 20.1911 22.0024 19.0379 22.0003C19.0379 22.0779 19.0379 22.1572 19.0379 22.2368Z" fill="white"/>
<path d="M19.0379 22.0003C20.1911 22.0036 21.3196 22.1553 22.4115 22.5247C22.3851 22.4492 22.3587 22.3717 22.3321 22.2961C21.277 21.9349 20.1605 21.7694 19.036 21.7653C19.036 21.8429 19.0361 21.9207 19.0394 22.0002L19.0379 22.0003Z" fill="white"/>
<path d="M19.036 21.7653C20.1605 21.7694 21.277 21.9349 22.3321 22.2961C22.3057 22.2206 22.279 22.147 22.2524 22.0715C21.234 21.7185 20.132 21.5409 19.036 21.5368C19.036 21.6124 19.036 21.6898 19.036 21.7653Z" fill="white"/>
<path d="M19.036 21.5368C20.132 21.5409 21.234 21.7185 22.2524 22.0715C22.224 21.9981 22.1974 21.9245 22.1688 21.8531C21.1688 21.5041 20.1175 21.3164 19.0358 21.3123C19.0358 21.3878 19.036 21.4613 19.036 21.5368Z" fill="white"/>
<path d="M22.4893 22.7595C23.6301 23.1452 24.6934 23.7511 25.8649 24.0532C25.8016 23.9981 25.7383 23.9431 25.675 23.8901C24.5444 23.5288 23.536 22.9084 22.4115 22.5247C22.438 22.6022 22.4648 22.6799 22.4893 22.7595Z" fill="white"/>
<path d="M22.4115 22.5247C23.536 22.9084 24.5444 23.5288 25.675 23.8901C25.6118 23.837 25.5484 23.782 25.4831 23.731C24.4422 23.2391 23.4199 22.6696 22.3321 22.2961C22.3587 22.3717 22.3851 22.4492 22.4115 22.5247Z" fill="white"/>
<path d="M22.3321 22.2961C23.4199 22.6696 24.4422 23.2391 25.4831 23.731C25.4198 23.6779 25.3547 23.6268 25.2894 23.5758C24.3404 22.9553 23.3014 22.4369 22.2524 22.0715C22.279 22.147 22.3057 22.2206 22.3321 22.2961Z" fill="white"/>
<path d="M22.2524 22.0715C23.3014 22.4369 24.3404 22.9553 25.2894 23.5758C25.2241 23.5247 25.1585 23.4736 25.0932 23.4247C24.185 22.745 23.2036 22.2123 22.1688 21.8531C22.1974 21.9245 22.224 21.9981 22.2524 22.0715Z" fill="white"/>
</svg>
