<svg width="38" height="39" viewBox="0 0 38 39" fill="none" xmlns="http://www.w3.org/2000/svg">
<circle cx="18.9996" cy="19.0821" r="18.9996" fill="#89E780"/>
<path d="M15.2027 14.5521C15.2027 16.472 13.8472 18.0283 12.1749 18.0283C10.5029 18.0283 9.14746 16.472 9.14746 14.5521C9.14746 12.6323 10.5029 11.0763 12.1749 11.0763C13.8472 11.0763 15.2027 12.6323 15.2027 14.5521Z" fill="#21214D"/>
<path d="M28.8525 14.5521C28.8525 16.472 27.4971 18.0283 25.8251 18.0283C24.1531 18.0283 22.7976 16.472 22.7976 14.5521C22.7976 12.6323 24.1531 11.0763 25.8251 11.0763C27.4971 11.0763 28.8525 12.6323 28.8525 14.5521Z" fill="#21214D"/>
<path d="M12.691 13.5208C12.691 14.1275 12.1989 14.6199 11.5919 14.6199C10.9849 14.6199 10.4929 14.1275 10.4929 13.5208C10.4929 12.9138 10.9849 12.4218 11.5919 12.4218C12.1989 12.4218 12.691 12.9138 12.691 13.5208Z" fill="white"/>
<path d="M26.3414 13.5208C26.3414 14.1275 25.8493 14.6199 25.2423 14.6199C24.6353 14.6199 24.1433 14.1275 24.1433 13.5208C24.1433 12.9138 24.6353 12.4218 25.2423 12.4218C25.8493 12.4218 26.3414 12.9138 26.3414 13.5208Z" fill="white"/>
<path d="M27.2292 26.1064L27.211 26.0886C26.6413 25.5952 25.6996 25.734 24.9776 26.2366C24.0088 26.9183 22.9547 27.3891 21.8692 27.6627C20.981 27.932 20.0122 28.0801 18.9984 28.0801C17.9803 28.0801 17.0115 27.932 16.119 27.6584C15.0378 27.3848 13.9884 26.9137 13.0241 26.2366C12.3018 25.734 11.3601 25.5952 10.7904 26.0886L10.7679 26.1064C10.2029 26.5862 10.3552 27.7166 11.2523 28.4882C13.2247 30.181 15.6425 31.1799 18.1654 31.4508C18.4406 31.467 18.7182 31.4783 19 31.4783C19.2826 31.4783 19.5608 31.467 19.8367 31.4508C22.3592 31.1796 24.7767 30.181 26.7448 28.4882C27.6462 27.7166 27.7989 26.5862 27.2292 26.1064Z" fill="#21214D"/>
</svg>
